<?xml version="1.0" encoding="UTF-8" standalone="no"?>
<!-- Created with Inkscape (http://www.inkscape.org/) -->

<svg
   width="128"
   height="32"
   viewBox="0 0 128 32"
   version="1.1"
   id="svg1"
   inkscape:version="1.4.2 (2aeb623e1d, 2025-05-12)"
   sodipodi:docname="battery_img.svg"
   inkscape:export-filename="../d745e5e4/usb_img.png"
   inkscape:export-xdpi="96"
   inkscape:export-ydpi="96"
   xmlns:inkscape="http://www.inkscape.org/namespaces/inkscape"
   xmlns:sodipodi="http://sodipodi.sourceforge.net/DTD/sodipodi-0.dtd"
   xmlns="http://www.w3.org/2000/svg"
   xmlns:svg="http://www.w3.org/2000/svg">
  <sodipodi:namedview
     id="namedview1"
     pagecolor="#ffffff"
     bordercolor="#eeeeee"
     borderopacity="1"
     inkscape:showpageshadow="0"
     inkscape:pageopacity="0"
     inkscape:pagecheckerboard="0"
     inkscape:deskcolor="#505050"
     inkscape:document-units="px"
     inkscape:zoom="3.9361212"
     inkscape:cx="102.25803"
     inkscape:cy="47.889786"
     inkscape:window-width="1920"
     inkscape:window-height="1043"
     inkscape:window-x="0"
     inkscape:window-y="0"
     inkscape:window-maximized="1"
     inkscape:current-layer="g1" />
  <defs
     id="defs1" />
  <g
     inkscape:label="Layer 1"
     inkscape:groupmode="layer"
     id="layer1">
    <g
       id="g1"
       transform="matrix(0.04674028,0,0,0.04674028,61.69553,14.992536)">
      <path
         d="M -100.67768,-45.112149 V 88.221177 M 32.655656,-45.112149 V 88.221177 M 349.32231,54.887844 V -11.778822 M -144.011,221.55451 h 353.33332 c 37.33666,0 56.00666,0 70.26666,-7.26667 12.54333,-6.39 22.74333,-16.59 29.13333,-29.13333 7.26667,-14.26 7.26667,-32.93 7.26667,-70.26666 V -71.778815 c 0,-37.336665 0,-56.005335 -7.26667,-70.265995 -6.39,-12.54434 -16.59,-22.743 -29.13333,-29.13434 -14.26,-7.26633 -32.93,-7.26633 -70.26666,-7.26633 H -144.011 c -37.33667,0 -56.00534,0 -70.266,7.26633 -12.54434,6.39134 -22.743,16.59 -29.13434,29.13434 -7.26633,14.26066 -7.26633,32.929 -7.26633,70.265995 V 114.88785 c 0,37.33666 0,56.00666 7.26633,70.26666 6.39134,12.54333 16.59,22.74333 29.13434,29.13333 14.26066,7.26667 32.929,7.26667 70.266,7.26667 z"
         stroke="#000000"
         stroke-width="66.6667"
         stroke-linecap="round"
         stroke-linejoin="round"
         id="path1"
         style="fill:none;stroke-width:46.0631;stroke-dasharray:none" />
    </g>
  </g>
</svg>
