<?xml version="1.0" encoding="UTF-8" standalone="no"?>
<!-- Created with Inkscape (http://www.inkscape.org/) -->

<svg
   width="128"
   height="32"
   viewBox="0 0 128 32"
   version="1.1"
   id="svg1"
   inkscape:version="1.4.2 (2aeb623e1d, 2025-05-12)"
   sodipodi:docname="usb_img.svg"
   inkscape:export-filename="../d745e5e4/usb_img.png"
   inkscape:export-xdpi="96"
   inkscape:export-ydpi="96"
   xmlns:inkscape="http://www.inkscape.org/namespaces/inkscape"
   xmlns:sodipodi="http://sodipodi.sourceforge.net/DTD/sodipodi-0.dtd"
   xmlns="http://www.w3.org/2000/svg"
   xmlns:svg="http://www.w3.org/2000/svg">
  <sodipodi:namedview
     id="namedview1"
     pagecolor="#ffffff"
     bordercolor="#eeeeee"
     borderopacity="1"
     inkscape:showpageshadow="0"
     inkscape:pageopacity="0"
     inkscape:pagecheckerboard="0"
     inkscape:deskcolor="#505050"
     inkscape:document-units="px"
     inkscape:zoom="3.7936018"
     inkscape:cx="27.282779"
     inkscape:cy="24.119558"
     inkscape:window-width="1920"
     inkscape:window-height="1043"
     inkscape:window-x="0"
     inkscape:window-y="0"
     inkscape:window-maximized="1"
     inkscape:current-layer="layer1" />
  <defs
     id="defs1" />
  <g
     inkscape:label="Layer 1"
     inkscape:groupmode="layer"
     id="layer1">
    <g
       id="g1"
       transform="matrix(0,0.03552362,-0.03552362,0,80.414377,-0.41439909)">
	<path
   d="m 350.27,388.938 c 0.399,-50.8 -41.5,-93.8 -92.2,-94.8 -52.9,-1.101 -96.1,41.5 -96.1,94.1 0,41.801 27.4,76.801 65,89.101 v 35.8 c 0,22 10.3,42.7 27.9,55.9 l 181.2,136.5 c -46.5,13.399 -80.5,56.3 -80.5,107.1 0,61.6 49.9,111.5 111.5,111.5 61.6,0 111.5,-49.9 111.5,-111.5 0,-51.3 -34.699,-94.5 -81.9,-107.5 v -52.6 l 166.4,-115.601 c 18.801,-13.1 30.1,-34.6 30.1,-57.5 v -49.5 h 19 c 27.602,0 50,-22.399 50,-50 v -81.2 c 0,-27.6 -22.398,-50 -50,-50 h -96.2 c -27.6,0 -50,22.4 -50,50 v 81.2 c 0,27.601 22.4,50 50,50 h 19 v 55.7 l -138.301,96 v -366.3 h 48.9 c 35,0 56.6,-38.301 38.5,-68.301 L 509.87,24.138 c -19.301,-32 -65.6,-32.2 -85.3,-0.5 l -76.2,123 c -18.6,30 3,68.7 38.3,68.7 h 51.9 v 419.1 L 285.27,519.039 v -41.7 c 37.399,-12.201 64.7,-47.001 65,-88.401 z"
   id="path1" />

</g>
  </g>
</svg>
